<svg width="300" height="277" viewBox="0 0 300 277" fill="none" xmlns="http://www.w3.org/2000/svg">
<circle opacity="0.102052" cx="148.7" cy="139.7" r="100.7" stroke="white" stroke-width="5.7"/>
<circle opacity="0.102052" cx="148.7" cy="139.7" r="77" stroke="white" stroke-width="5.7"/>
<circle opacity="0.102052" cx="148.7" cy="139.7" r="89" stroke="white" stroke-width="5.7"/>
<circle opacity="0.102052" cx="148.7" cy="139.7" r="65" stroke="white" stroke-width="5.7"/>
<circle opacity="0.102052" cx="149" cy="140" r="53" stroke="white" stroke-width="5.586"/>
<path d="M48 139.7C48 195.315 93.0849 240.4 148.7 240.4C204.315 240.4 249.4 195.315 249.4 139.7C249.4 84.0849 204.315 39 148.7 39" stroke="#4DACF6" stroke-width="5.7" stroke-linecap="round"/>
<path d="M237.7 139.7C237.7 90.5467 197.853 50.7 148.7 50.7" stroke="#674DF6" stroke-width="5.7" stroke-linecap="round"/>
<path d="M126.953 65.8138C95.0168 75.1985 71.7 104.726 71.7 139.7C71.7 182.226 106.174 216.7 148.7 216.7C191.226 216.7 225.7 182.226 225.7 139.7C225.7 97.1741 191.226 62.7 148.7 62.7" stroke="#32DBBB" stroke-width="5.7" stroke-linecap="round"/>
<path d="M102.018 185.101C113.873 197.193 130.424 204.7 148.736 204.7C184.79 204.7 214.018 175.599 214.018 139.7C214.018 103.802 184.79 74.7 148.736 74.7" stroke="#FE5B81" stroke-width="5.7" stroke-linecap="round"/>
<path d="M196.7 117.85C188.405 99.5636 170.033 87 148.7 87" stroke="#FFA800" stroke-width="5.7" stroke-linecap="round"/>
<path d="M139.012 11.752C139.492 11.752 139.732 11.956 139.732 12.364C139.732 12.788 139.492 13 139.012 13H134.956C134.468 13 134.224 12.788 134.224 12.364C134.224 11.956 134.468 11.752 134.956 11.752H136.204V6.28L135.052 6.988C134.94 7.052 134.84 7.084 134.752 7.084C134.584 7.084 134.44 7.012 134.32 6.868C134.208 6.724 134.152 6.564 134.152 6.388C134.152 6.156 134.256 5.976 134.464 5.848L136.324 4.696C136.564 4.552 136.792 4.48 137.008 4.48C137.232 4.48 137.412 4.548 137.548 4.684C137.684 4.82 137.752 5.008 137.752 5.248V11.752H139.012ZM143.795 13.108C142.795 13.108 142.031 12.74 141.503 12.004C140.975 11.26 140.711 10.18 140.711 8.764C140.711 7.356 140.975 6.284 141.503 5.548C142.031 4.804 142.795 4.432 143.795 4.432C144.795 4.432 145.559 4.804 146.087 5.548C146.615 6.284 146.879 7.356 146.879 8.764C146.879 10.172 146.615 11.248 146.087 11.992C145.559 12.736 144.795 13.108 143.795 13.108ZM143.795 11.896C144.339 11.896 144.735 11.648 144.983 11.152C145.231 10.648 145.355 9.852 145.355 8.764C145.355 7.668 145.231 6.876 144.983 6.388C144.735 5.892 144.339 5.644 143.795 5.644C143.251 5.644 142.855 5.892 142.607 6.388C142.359 6.884 142.235 7.676 142.235 8.764C142.235 9.852 142.359 10.648 142.607 11.152C142.855 11.648 143.251 11.896 143.795 11.896ZM150.991 13.108C149.991 13.108 149.227 12.74 148.699 12.004C148.171 11.26 147.907 10.18 147.907 8.764C147.907 7.356 148.171 6.284 148.699 5.548C149.227 4.804 149.991 4.432 150.991 4.432C151.991 4.432 152.755 4.804 153.283 5.548C153.811 6.284 154.075 7.356 154.075 8.764C154.075 10.172 153.811 11.248 153.283 11.992C152.755 12.736 151.991 13.108 150.991 13.108ZM150.991 11.896C151.535 11.896 151.931 11.648 152.179 11.152C152.427 10.648 152.551 9.852 152.551 8.764C152.551 7.668 152.427 6.876 152.179 6.388C151.931 5.892 151.535 5.644 150.991 5.644C150.447 5.644 150.051 5.892 149.803 6.388C149.555 6.884 149.431 7.676 149.431 8.764C149.431 9.852 149.555 10.648 149.803 11.152C150.051 11.648 150.447 11.896 150.991 11.896ZM158.57 12.832C158.498 12.96 158.41 13.056 158.306 13.12C158.202 13.184 158.098 13.216 157.994 13.216C157.85 13.216 157.722 13.164 157.61 13.06C157.506 12.956 157.454 12.824 157.454 12.664C157.454 12.528 157.494 12.392 157.574 12.256L161.942 4.708C162.014 4.58 162.102 4.484 162.206 4.42C162.31 4.356 162.414 4.324 162.518 4.324C162.662 4.324 162.786 4.376 162.89 4.48C163.002 4.584 163.058 4.716 163.058 4.876C163.058 5.012 163.018 5.148 162.938 5.284L158.57 12.832ZM157.238 9.592C156.566 9.592 156.042 9.372 155.666 8.932C155.29 8.492 155.102 7.848 155.102 7C155.102 6.16 155.29 5.52 155.666 5.08C156.042 4.64 156.566 4.42 157.238 4.42C157.91 4.42 158.434 4.64 158.81 5.08C159.194 5.52 159.386 6.16 159.386 7C159.386 7.848 159.194 8.492 158.81 8.932C158.434 9.372 157.91 9.592 157.238 9.592ZM157.238 8.62C157.542 8.62 157.762 8.496 157.898 8.248C158.042 7.992 158.114 7.576 158.114 7C158.114 6.44 158.042 6.032 157.898 5.776C157.754 5.52 157.534 5.392 157.238 5.392C156.942 5.392 156.722 5.52 156.578 5.776C156.442 6.024 156.374 6.432 156.374 7C156.374 7.576 156.442 7.992 156.578 8.248C156.722 8.496 156.942 8.62 157.238 8.62ZM163.274 13.084C162.602 13.084 162.078 12.864 161.702 12.424C161.326 11.984 161.138 11.336 161.138 10.48C161.138 9.64 161.326 9.004 161.702 8.572C162.086 8.132 162.61 7.912 163.274 7.912C163.946 7.912 164.47 8.132 164.846 8.572C165.222 9.012 165.41 9.652 165.41 10.492C165.41 11.34 165.222 11.984 164.846 12.424C164.47 12.864 163.946 13.084 163.274 13.084ZM163.274 12.112C163.57 12.112 163.79 11.988 163.934 11.74C164.078 11.484 164.15 11.068 164.15 10.492C164.15 9.932 164.078 9.524 163.934 9.268C163.79 9.012 163.57 8.884 163.274 8.884C162.978 8.884 162.758 9.012 162.614 9.268C162.47 9.524 162.398 9.932 162.398 10.492C162.398 11.068 162.47 11.484 162.614 11.74C162.758 11.988 162.978 12.112 163.274 12.112Z" fill="white"/>
<path d="M140.044 266.588C140.572 266.588 141.036 266.704 141.436 266.936C141.844 267.16 142.16 267.476 142.384 267.884C142.608 268.292 142.72 268.76 142.72 269.288C142.72 269.84 142.592 270.328 142.336 270.752C142.088 271.176 141.732 271.508 141.268 271.748C140.812 271.98 140.284 272.096 139.684 272.096C139.188 272.096 138.7 272.016 138.22 271.856C137.748 271.688 137.344 271.464 137.008 271.184C136.824 271.024 136.732 270.836 136.732 270.62C136.732 270.444 136.78 270.296 136.876 270.176C136.98 270.048 137.1 269.984 137.236 269.984C137.316 269.984 137.392 270 137.464 270.032C137.536 270.056 137.62 270.1 137.716 270.164C138.036 270.388 138.348 270.56 138.652 270.68C138.956 270.8 139.28 270.86 139.624 270.86C140.152 270.86 140.556 270.728 140.836 270.464C141.116 270.2 141.256 269.824 141.256 269.336C141.256 268.864 141.112 268.492 140.824 268.22C140.544 267.94 140.156 267.8 139.66 267.8C139.348 267.8 139.068 267.844 138.82 267.932C138.58 268.02 138.332 268.168 138.076 268.376C137.924 268.48 137.768 268.532 137.608 268.532C137.448 268.532 137.312 268.484 137.2 268.388C137.088 268.292 137.032 268.164 137.032 268.004V264.26C137.032 264.036 137.096 263.86 137.224 263.732C137.352 263.604 137.532 263.54 137.764 263.54H141.76C142.24 263.54 142.48 263.74 142.48 264.14C142.48 264.54 142.24 264.74 141.76 264.74H138.544V267.02C138.952 266.732 139.452 266.588 140.044 266.588ZM146.795 272.108C145.795 272.108 145.031 271.74 144.503 271.004C143.975 270.26 143.711 269.18 143.711 267.764C143.711 266.356 143.975 265.284 144.503 264.548C145.031 263.804 145.795 263.432 146.795 263.432C147.795 263.432 148.559 263.804 149.087 264.548C149.615 265.284 149.879 266.356 149.879 267.764C149.879 269.172 149.615 270.248 149.087 270.992C148.559 271.736 147.795 272.108 146.795 272.108ZM146.795 270.896C147.339 270.896 147.735 270.648 147.983 270.152C148.231 269.648 148.355 268.852 148.355 267.764C148.355 266.668 148.231 265.876 147.983 265.388C147.735 264.892 147.339 264.644 146.795 264.644C146.251 264.644 145.855 264.892 145.607 265.388C145.359 265.884 145.235 266.676 145.235 267.764C145.235 268.852 145.359 269.648 145.607 270.152C145.855 270.648 146.251 270.896 146.795 270.896ZM154.375 271.832C154.303 271.96 154.215 272.056 154.111 272.12C154.007 272.184 153.903 272.216 153.799 272.216C153.655 272.216 153.527 272.164 153.415 272.06C153.311 271.956 153.259 271.824 153.259 271.664C153.259 271.528 153.299 271.392 153.379 271.256L157.747 263.708C157.819 263.58 157.907 263.484 158.011 263.42C158.115 263.356 158.219 263.324 158.323 263.324C158.467 263.324 158.591 263.376 158.695 263.48C158.807 263.584 158.863 263.716 158.863 263.876C158.863 264.012 158.823 264.148 158.743 264.284L154.375 271.832ZM153.043 268.592C152.371 268.592 151.847 268.372 151.471 267.932C151.095 267.492 150.907 266.848 150.907 266C150.907 265.16 151.095 264.52 151.471 264.08C151.847 263.64 152.371 263.42 153.043 263.42C153.715 263.42 154.239 263.64 154.615 264.08C154.999 264.52 155.191 265.16 155.191 266C155.191 266.848 154.999 267.492 154.615 267.932C154.239 268.372 153.715 268.592 153.043 268.592ZM153.043 267.62C153.347 267.62 153.567 267.496 153.703 267.248C153.847 266.992 153.919 266.576 153.919 266C153.919 265.44 153.847 265.032 153.703 264.776C153.559 264.52 153.339 264.392 153.043 264.392C152.747 264.392 152.527 264.52 152.383 264.776C152.247 265.024 152.179 265.432 152.179 266C152.179 266.576 152.247 266.992 152.383 267.248C152.527 267.496 152.747 267.62 153.043 267.62ZM159.079 272.084C158.407 272.084 157.883 271.864 157.507 271.424C157.131 270.984 156.943 270.336 156.943 269.48C156.943 268.64 157.131 268.004 157.507 267.572C157.891 267.132 158.415 266.912 159.079 266.912C159.751 266.912 160.275 267.132 160.651 267.572C161.027 268.012 161.215 268.652 161.215 269.492C161.215 270.34 161.027 270.984 160.651 271.424C160.275 271.864 159.751 272.084 159.079 272.084ZM159.079 271.112C159.375 271.112 159.595 270.988 159.739 270.74C159.883 270.484 159.955 270.068 159.955 269.492C159.955 268.932 159.883 268.524 159.739 268.268C159.595 268.012 159.375 267.884 159.079 267.884C158.783 267.884 158.563 268.012 158.419 268.268C158.275 268.524 158.203 268.932 158.203 269.492C158.203 270.068 158.275 270.484 158.419 270.74C158.563 270.988 158.783 271.112 159.079 271.112Z" fill="white"/>
<path d="M279.976 142.752C280.456 142.752 280.696 142.956 280.696 143.364C280.696 143.788 280.456 144 279.976 144H275.416C275.208 144 275.044 143.94 274.924 143.82C274.804 143.692 274.744 143.536 274.744 143.352C274.744 143.112 274.836 142.896 275.02 142.704L277.756 139.764C278.092 139.396 278.336 139.06 278.488 138.756C278.648 138.444 278.728 138.136 278.728 137.832C278.728 137.456 278.62 137.168 278.404 136.968C278.188 136.768 277.88 136.668 277.48 136.668C277.152 136.668 276.832 136.732 276.52 136.86C276.216 136.98 275.908 137.148 275.596 137.364C275.516 137.42 275.436 137.468 275.356 137.508C275.276 137.54 275.196 137.556 275.116 137.556C274.98 137.556 274.86 137.492 274.756 137.364C274.66 137.236 274.612 137.084 274.612 136.908C274.612 136.788 274.632 136.684 274.672 136.596C274.72 136.508 274.792 136.424 274.888 136.344C275.24 136.064 275.652 135.844 276.124 135.684C276.596 135.516 277.068 135.432 277.54 135.432C278.364 135.432 279.02 135.64 279.508 136.056C280.004 136.472 280.252 137.032 280.252 137.736C280.252 138.224 280.148 138.684 279.94 139.116C279.732 139.54 279.38 140.016 278.884 140.544L276.808 142.752H279.976ZM285.251 138.588C285.779 138.588 286.243 138.704 286.643 138.936C287.051 139.16 287.367 139.476 287.591 139.884C287.815 140.292 287.927 140.76 287.927 141.288C287.927 141.84 287.799 142.328 287.543 142.752C287.295 143.176 286.939 143.508 286.475 143.748C286.019 143.98 285.491 144.096 284.891 144.096C284.395 144.096 283.907 144.016 283.427 143.856C282.955 143.688 282.551 143.464 282.215 143.184C282.031 143.024 281.939 142.836 281.939 142.62C281.939 142.444 281.987 142.296 282.083 142.176C282.187 142.048 282.307 141.984 282.443 141.984C282.523 141.984 282.599 142 282.671 142.032C282.743 142.056 282.827 142.1 282.923 142.164C283.243 142.388 283.555 142.56 283.859 142.68C284.163 142.8 284.487 142.86 284.831 142.86C285.359 142.86 285.763 142.728 286.043 142.464C286.323 142.2 286.463 141.824 286.463 141.336C286.463 140.864 286.319 140.492 286.031 140.22C285.751 139.94 285.363 139.8 284.867 139.8C284.555 139.8 284.275 139.844 284.027 139.932C283.787 140.02 283.539 140.168 283.283 140.376C283.131 140.48 282.975 140.532 282.815 140.532C282.655 140.532 282.519 140.484 282.407 140.388C282.295 140.292 282.239 140.164 282.239 140.004V136.26C282.239 136.036 282.303 135.86 282.431 135.732C282.559 135.604 282.739 135.54 282.971 135.54H286.967C287.447 135.54 287.687 135.74 287.687 136.14C287.687 136.54 287.447 136.74 286.967 136.74H283.751V139.02C284.159 138.732 284.659 138.588 285.251 138.588ZM292.386 143.832C292.314 143.96 292.226 144.056 292.122 144.12C292.018 144.184 291.914 144.216 291.81 144.216C291.666 144.216 291.538 144.164 291.426 144.06C291.322 143.956 291.27 143.824 291.27 143.664C291.27 143.528 291.31 143.392 291.39 143.256L295.758 135.708C295.83 135.58 295.918 135.484 296.022 135.42C296.126 135.356 296.23 135.324 296.334 135.324C296.478 135.324 296.602 135.376 296.706 135.48C296.818 135.584 296.874 135.716 296.874 135.876C296.874 136.012 296.834 136.148 296.754 136.284L292.386 143.832ZM291.054 140.592C290.382 140.592 289.858 140.372 289.482 139.932C289.106 139.492 288.918 138.848 288.918 138C288.918 137.16 289.106 136.52 289.482 136.08C289.858 135.64 290.382 135.42 291.054 135.42C291.726 135.42 292.25 135.64 292.626 136.08C293.01 136.52 293.202 137.16 293.202 138C293.202 138.848 293.01 139.492 292.626 139.932C292.25 140.372 291.726 140.592 291.054 140.592ZM291.054 139.62C291.358 139.62 291.578 139.496 291.714 139.248C291.858 138.992 291.93 138.576 291.93 138C291.93 137.44 291.858 137.032 291.714 136.776C291.57 136.52 291.35 136.392 291.054 136.392C290.758 136.392 290.538 136.52 290.394 136.776C290.258 137.024 290.19 137.432 290.19 138C290.19 138.576 290.258 138.992 290.394 139.248C290.538 139.496 290.758 139.62 291.054 139.62ZM297.09 144.084C296.418 144.084 295.894 143.864 295.518 143.424C295.142 142.984 294.954 142.336 294.954 141.48C294.954 140.64 295.142 140.004 295.518 139.572C295.902 139.132 296.426 138.912 297.09 138.912C297.762 138.912 298.286 139.132 298.662 139.572C299.038 140.012 299.226 140.652 299.226 141.492C299.226 142.34 299.038 142.984 298.662 143.424C298.286 143.864 297.762 144.084 297.09 144.084ZM297.09 143.112C297.386 143.112 297.606 142.988 297.75 142.74C297.894 142.484 297.966 142.068 297.966 141.492C297.966 140.932 297.894 140.524 297.75 140.268C297.606 140.012 297.386 139.884 297.09 139.884C296.794 139.884 296.574 140.012 296.43 140.268C296.286 140.524 296.214 140.932 296.214 141.492C296.214 142.068 296.286 142.484 296.43 142.74C296.574 142.988 296.794 143.112 297.09 143.112Z" fill="white"/>
<path d="M6.036 135.54C6.244 135.54 6.404 135.6 6.516 135.72C6.628 135.832 6.684 135.98 6.684 136.164C6.684 136.348 6.628 136.54 6.516 136.74L2.688 143.688C2.528 143.96 2.308 144.096 2.028 144.096C1.836 144.096 1.664 144.032 1.512 143.904C1.368 143.768 1.296 143.604 1.296 143.412C1.296 143.276 1.336 143.14 1.416 143.004L4.86 136.788H1.236C0.756 136.788 0.516 136.584 0.516 136.176C0.516 135.752 0.756 135.54 1.236 135.54H6.036ZM11.2393 138.588C11.7673 138.588 12.2313 138.704 12.6313 138.936C13.0393 139.16 13.3553 139.476 13.5793 139.884C13.8033 140.292 13.9153 140.76 13.9153 141.288C13.9153 141.84 13.7873 142.328 13.5313 142.752C13.2833 143.176 12.9273 143.508 12.4633 143.748C12.0073 143.98 11.4793 144.096 10.8793 144.096C10.3833 144.096 9.89531 144.016 9.41531 143.856C8.94331 143.688 8.53931 143.464 8.20331 143.184C8.01931 143.024 7.92731 142.836 7.92731 142.62C7.92731 142.444 7.97531 142.296 8.07131 142.176C8.17531 142.048 8.29531 141.984 8.43131 141.984C8.51131 141.984 8.58731 142 8.65931 142.032C8.73131 142.056 8.81531 142.1 8.91131 142.164C9.23131 142.388 9.54331 142.56 9.84731 142.68C10.1513 142.8 10.4753 142.86 10.8193 142.86C11.3473 142.86 11.7513 142.728 12.0313 142.464C12.3113 142.2 12.4513 141.824 12.4513 141.336C12.4513 140.864 12.3073 140.492 12.0193 140.22C11.7393 139.94 11.3513 139.8 10.8553 139.8C10.5433 139.8 10.2633 139.844 10.0153 139.932C9.77531 140.02 9.52731 140.168 9.27131 140.376C9.11931 140.48 8.96331 140.532 8.80331 140.532C8.64331 140.532 8.50731 140.484 8.39531 140.388C8.28331 140.292 8.22731 140.164 8.22731 140.004V136.26C8.22731 136.036 8.29131 135.86 8.41931 135.732C8.54731 135.604 8.72731 135.54 8.95931 135.54H12.9553C13.4353 135.54 13.6753 135.74 13.6753 136.14C13.6753 136.54 13.4353 136.74 12.9553 136.74H9.73931V139.02C10.1473 138.732 10.6473 138.588 11.2393 138.588ZM18.3746 143.832C18.3026 143.96 18.2146 144.056 18.1106 144.12C18.0066 144.184 17.9026 144.216 17.7986 144.216C17.6546 144.216 17.5266 144.164 17.4146 144.06C17.3106 143.956 17.2586 143.824 17.2586 143.664C17.2586 143.528 17.2986 143.392 17.3786 143.256L21.7466 135.708C21.8186 135.58 21.9066 135.484 22.0106 135.42C22.1146 135.356 22.2186 135.324 22.3226 135.324C22.4666 135.324 22.5906 135.376 22.6946 135.48C22.8066 135.584 22.8626 135.716 22.8626 135.876C22.8626 136.012 22.8226 136.148 22.7426 136.284L18.3746 143.832ZM17.0426 140.592C16.3706 140.592 15.8466 140.372 15.4706 139.932C15.0946 139.492 14.9066 138.848 14.9066 138C14.9066 137.16 15.0946 136.52 15.4706 136.08C15.8466 135.64 16.3706 135.42 17.0426 135.42C17.7146 135.42 18.2386 135.64 18.6146 136.08C18.9986 136.52 19.1906 137.16 19.1906 138C19.1906 138.848 18.9986 139.492 18.6146 139.932C18.2386 140.372 17.7146 140.592 17.0426 140.592ZM17.0426 139.62C17.3466 139.62 17.5666 139.496 17.7026 139.248C17.8466 138.992 17.9186 138.576 17.9186 138C17.9186 137.44 17.8466 137.032 17.7026 136.776C17.5586 136.52 17.3386 136.392 17.0426 136.392C16.7466 136.392 16.5266 136.52 16.3826 136.776C16.2466 137.024 16.1786 137.432 16.1786 138C16.1786 138.576 16.2466 138.992 16.3826 139.248C16.5266 139.496 16.7466 139.62 17.0426 139.62ZM23.0786 144.084C22.4066 144.084 21.8826 143.864 21.5066 143.424C21.1306 142.984 20.9426 142.336 20.9426 141.48C20.9426 140.64 21.1306 140.004 21.5066 139.572C21.8906 139.132 22.4146 138.912 23.0786 138.912C23.7506 138.912 24.2746 139.132 24.6506 139.572C25.0266 140.012 25.2146 140.652 25.2146 141.492C25.2146 142.34 25.0266 142.984 24.6506 143.424C24.2746 143.864 23.7506 144.084 23.0786 144.084ZM23.0786 143.112C23.3746 143.112 23.5946 142.988 23.7386 142.74C23.8826 142.484 23.9546 142.068 23.9546 141.492C23.9546 140.932 23.8826 140.524 23.7386 140.268C23.5946 140.012 23.3746 139.884 23.0786 139.884C22.7826 139.884 22.5626 140.012 22.4186 140.268C22.2746 140.524 22.2026 140.932 22.2026 141.492C22.2026 142.068 22.2746 142.484 22.4186 142.74C22.5626 142.988 22.7826 143.112 23.0786 143.112Z" fill="white"/>
<circle cx="47.85" cy="139.85" r="2.85" fill="white"/>
<circle cx="126.85" cy="65.85" r="2.85" fill="white"/>
<circle cx="101.85" cy="184.85" r="2.85" fill="white"/>
<circle cx="196.85" cy="117.85" r="2.85" fill="white"/>
<circle cx="237.85" cy="139.85" r="2.85" fill="white"/>
</svg>
